<svg xmlns="http://www.w3.org/2000/svg" xmlns:xlink="http://www.w3.org/1999/xlink" width="5000" zoomAndPan="magnify" viewBox="0 0 3750 749.999995" height="1000" preserveAspectRatio="xMidYMid meet" version="1.0"><defs><g/><clipPath id="98987f1d21"><path d="M 11.441406 38 L 447 38 L 447 607.945312 L 11.441406 607.945312 Z M 11.441406 38 " clip-rule="nonzero"/></clipPath><clipPath id="b242509286"><path d="M 369.480469 95.90625 L 129.324219 513.417969 C 123.804688 523.007812 130.34375 535.046875 141.390625 535.640625 L 176.082031 537.503906 C 181.644531 537.800781 186.902344 534.960938 189.703125 530.144531 L 396.117188 175.246094 C 401.832031 165.421875 416.007812 165.402344 421.75 175.210938 L 444.28125 213.710938 C 446.964844 218.304688 446.992188 223.980469 444.34375 228.59375 L 231.125 600.390625 C 228.480469 605.003906 223.570312 607.847656 218.253906 607.847656 L 26.355469 607.847656 C 14.960938 607.847656 7.816406 595.53125 13.476562 585.636719 L 322.480469 45.511719 C 328.117188 35.65625 342.28125 35.523438 348.101562 45.273438 L 369.359375 80.894531 C 372.109375 85.507812 372.15625 91.25 369.480469 95.90625 Z M 369.480469 95.90625 " clip-rule="nonzero"/></clipPath><linearGradient x1="736.79112" gradientTransform="matrix(0.106976, 0, 0, 0.106974, 11.442715, 37.98769)" y1="5743.559444" x2="4004.835957" gradientUnits="userSpaceOnUse" y2="-38.065445" id="85002bd285"><stop stop-opacity="1" stop-color="rgb(87.5%, 47.799683%, 18.798828%)" offset="0"/><stop stop-opacity="1" stop-color="rgb(87.5%, 47.799683%, 18.798828%)" offset="0.25"/><stop stop-opacity="1" stop-color="rgb(87.5%, 47.799683%, 18.798828%)" offset="0.301667"/><stop stop-opacity="1" stop-color="rgb(87.5%, 47.799683%, 18.798828%)" offset="0.375"/><stop stop-opacity="1" stop-color="rgb(87.5%, 47.799683%, 18.798828%)" offset="0.4375"/><stop stop-opacity="1" stop-color="rgb(87.532043%, 47.892761%, 18.765259%)" offset="0.445312"/><stop stop-opacity="1" stop-color="rgb(87.631226%, 48.178101%, 18.666077%)" offset="0.453125"/><stop stop-opacity="1" stop-color="rgb(87.767029%, 48.564148%, 18.530273%)" offset="0.460938"/><stop stop-opacity="1" stop-color="rgb(87.901306%, 48.950195%, 18.395996%)" offset="0.46875"/><stop stop-opacity="1" stop-color="rgb(88.037109%, 49.336243%, 18.260193%)" offset="0.476563"/><stop stop-opacity="1" stop-color="rgb(88.171387%, 49.720764%, 18.125916%)" offset="0.484375"/><stop stop-opacity="1" stop-color="rgb(88.30719%, 50.106812%, 17.990112%)" offset="0.492187"/><stop stop-opacity="1" stop-color="rgb(88.441467%, 50.492859%, 17.855835%)" offset="0.5"/><stop stop-opacity="1" stop-color="rgb(88.577271%, 50.878906%, 17.721558%)" offset="0.507812"/><stop stop-opacity="1" stop-color="rgb(88.711548%, 51.264954%, 17.585754%)" offset="0.515625"/><stop stop-opacity="1" stop-color="rgb(88.847351%, 51.649475%, 17.451477%)" offset="0.523438"/><stop stop-opacity="1" stop-color="rgb(88.981628%, 52.035522%, 17.315674%)" offset="0.53125"/><stop stop-opacity="1" stop-color="rgb(89.117432%, 52.42157%, 17.181396%)" offset="0.539062"/><stop stop-opacity="1" stop-color="rgb(89.251709%, 52.807617%, 17.045593%)" offset="0.546875"/><stop stop-opacity="1" stop-color="rgb(89.387512%, 53.193665%, 16.911316%)" offset="0.554688"/><stop stop-opacity="1" stop-color="rgb(89.52179%, 53.578186%, 16.775513%)" offset="0.5625"/><stop stop-opacity="1" stop-color="rgb(89.657593%, 53.964233%, 16.641235%)" offset="0.570312"/><stop stop-opacity="1" stop-color="rgb(89.79187%, 54.350281%, 16.505432%)" offset="0.578125"/><stop stop-opacity="1" stop-color="rgb(89.927673%, 54.736328%, 16.371155%)" offset="0.585938"/><stop stop-opacity="1" stop-color="rgb(90.061951%, 55.122375%, 16.235352%)" offset="0.59375"/><stop stop-opacity="1" stop-color="rgb(90.196228%, 55.506897%, 16.101074%)" offset="0.601562"/><stop stop-opacity="1" stop-color="rgb(90.332031%, 55.892944%, 15.965271%)" offset="0.609375"/><stop stop-opacity="1" stop-color="rgb(90.466309%, 56.278992%, 15.830994%)" offset="0.617188"/><stop stop-opacity="1" stop-color="rgb(90.602112%, 56.665039%, 15.69519%)" offset="0.625"/><stop stop-opacity="1" stop-color="rgb(90.736389%, 57.049561%, 15.560913%)" offset="0.632812"/><stop stop-opacity="1" stop-color="rgb(90.872192%, 57.435608%, 15.42511%)" offset="0.640625"/><stop stop-opacity="1" stop-color="rgb(91.00647%, 57.821655%, 15.290833%)" offset="0.648437"/><stop stop-opacity="1" stop-color="rgb(91.142273%, 58.207703%, 15.155029%)" offset="0.65625"/><stop stop-opacity="1" stop-color="rgb(91.27655%, 58.59375%, 15.020752%)" offset="0.664062"/><stop stop-opacity="1" stop-color="rgb(91.412354%, 58.978271%, 14.886475%)" offset="0.671875"/><stop stop-opacity="1" stop-color="rgb(91.546631%, 59.364319%, 14.750671%)" offset="0.679687"/><stop stop-opacity="1" stop-color="rgb(91.682434%, 59.750366%, 14.616394%)" offset="0.6875"/><stop stop-opacity="1" stop-color="rgb(91.816711%, 60.136414%, 14.480591%)" offset="0.695312"/><stop stop-opacity="1" stop-color="rgb(91.952515%, 60.522461%, 14.346313%)" offset="0.698333"/><stop stop-opacity="1" stop-color="rgb(92.019653%, 60.714722%, 14.279175%)" offset="0.703125"/><stop stop-opacity="1" stop-color="rgb(92.086792%, 60.906982%, 14.21051%)" offset="0.710937"/><stop stop-opacity="1" stop-color="rgb(92.222595%, 61.29303%, 14.076233%)" offset="0.71875"/><stop stop-opacity="1" stop-color="rgb(92.356873%, 61.679077%, 13.94043%)" offset="0.726562"/><stop stop-opacity="1" stop-color="rgb(92.492676%, 62.065125%, 13.806152%)" offset="0.734375"/><stop stop-opacity="1" stop-color="rgb(92.626953%, 62.451172%, 13.670349%)" offset="0.742187"/><stop stop-opacity="1" stop-color="rgb(92.762756%, 62.835693%, 13.536072%)" offset="0.75"/><stop stop-opacity="1" stop-color="rgb(92.897034%, 63.221741%, 13.400269%)" offset="0.757812"/><stop stop-opacity="1" stop-color="rgb(93.031311%, 63.607788%, 13.265991%)" offset="0.765625"/><stop stop-opacity="1" stop-color="rgb(93.167114%, 63.993835%, 13.130188%)" offset="0.773437"/><stop stop-opacity="1" stop-color="rgb(93.301392%, 64.379883%, 12.995911%)" offset="0.78125"/><stop stop-opacity="1" stop-color="rgb(93.437195%, 64.764404%, 12.860107%)" offset="0.789062"/><stop stop-opacity="1" stop-color="rgb(93.571472%, 65.150452%, 12.72583%)" offset="0.796875"/><stop stop-opacity="1" stop-color="rgb(93.707275%, 65.536499%, 12.590027%)" offset="0.804687"/><stop stop-opacity="1" stop-color="rgb(93.841553%, 65.922546%, 12.45575%)" offset="0.8125"/><stop stop-opacity="1" stop-color="rgb(93.977356%, 66.307068%, 12.319946%)" offset="0.820312"/><stop stop-opacity="1" stop-color="rgb(94.111633%, 66.693115%, 12.185669%)" offset="0.828125"/><stop stop-opacity="1" stop-color="rgb(94.247437%, 67.079163%, 12.051392%)" offset="0.835938"/><stop stop-opacity="1" stop-color="rgb(94.381714%, 67.46521%, 11.915588%)" offset="0.84375"/><stop stop-opacity="1" stop-color="rgb(94.474792%, 67.729187%, 11.824036%)" offset="0.875"/><stop stop-opacity="1" stop-color="rgb(94.499207%, 67.799377%, 11.799622%)" offset="1"/></linearGradient><clipPath id="84ba14aed0"><path d="M 11.441406 37.945312 L 448 37.945312 L 448 607.945312 L 11.441406 607.945312 Z M 11.441406 37.945312 " clip-rule="nonzero"/></clipPath><clipPath id="4b5ff0d142"><path d="M 312 298 L 666.941406 298 L 666.941406 607.945312 L 312 607.945312 Z M 312 298 " clip-rule="nonzero"/></clipPath><clipPath id="c91bf52cbe"><path d="M 571.273438 479.054688 L 533.890625 479.054688 C 529.84375 479.054688 526.066406 477.011719 523.847656 473.628906 L 497.820312 433.9375 C 492.929688 426.480469 481.902344 426.765625 477.40625 434.46875 L 428.519531 518.195312 C 423.886719 526.125 429.503906 536.109375 438.6875 536.265625 L 630.234375 539.523438 C 634.507812 539.597656 638.417969 541.933594 640.507812 545.660156 L 665.339844 589.957031 C 669.828125 597.964844 664.039062 607.84375 654.859375 607.84375 L 324.230469 607.84375 C 315.050781 607.84375 309.265625 597.964844 313.753906 589.957031 L 473.691406 304.621094 C 478.289062 296.421875 490.09375 296.4375 494.664062 304.652344 L 581.765625 461.195312 C 586.222656 469.203125 580.433594 479.050781 571.273438 479.050781 Z M 571.273438 479.054688 " clip-rule="nonzero"/></clipPath><linearGradient x1="4008.29697" gradientTransform="matrix(0.106976, 0, 0, 0.106974, 11.442715, 37.98769)" y1="6019.080602" x2="6064.997737" gradientUnits="userSpaceOnUse" y2="2380.494309" id="2f6847fb30"><stop stop-opacity="1" stop-color="rgb(21.998596%, 71.798706%, 78.399658%)" offset="0"/><stop stop-opacity="1" stop-color="rgb(21.998596%, 71.798706%, 78.399658%)" offset="0.125"/><stop stop-opacity="1" stop-color="rgb(22.03064%, 71.798706%, 78.359985%)" offset="0.140625"/><stop stop-opacity="1" stop-color="rgb(22.154236%, 71.798706%, 78.211975%)" offset="0.148438"/><stop stop-opacity="1" stop-color="rgb(22.335815%, 71.798706%, 77.9953%)" offset="0.15625"/><stop stop-opacity="1" stop-color="rgb(22.515869%, 71.798706%, 77.778625%)" offset="0.164063"/><stop stop-opacity="1" stop-color="rgb(22.695923%, 71.798706%, 77.560425%)" offset="0.171875"/><stop stop-opacity="1" stop-color="rgb(22.875977%, 71.798706%, 77.34375%)" offset="0.179688"/><stop stop-opacity="1" stop-color="rgb(23.05603%, 71.798706%, 77.127075%)" offset="0.1875"/><stop stop-opacity="1" stop-color="rgb(23.23761%, 71.798706%, 76.9104%)" offset="0.195312"/><stop stop-opacity="1" stop-color="rgb(23.417664%, 71.798706%, 76.693726%)" offset="0.203125"/><stop stop-opacity="1" stop-color="rgb(23.597717%, 71.798706%, 76.475525%)" offset="0.210938"/><stop stop-opacity="1" stop-color="rgb(23.777771%, 71.798706%, 76.25885%)" offset="0.21875"/><stop stop-opacity="1" stop-color="rgb(23.959351%, 71.798706%, 76.042175%)" offset="0.226563"/><stop stop-opacity="1" stop-color="rgb(24.139404%, 71.798706%, 75.8255%)" offset="0.234375"/><stop stop-opacity="1" stop-color="rgb(24.319458%, 71.798706%, 75.608826%)" offset="0.242188"/><stop stop-opacity="1" stop-color="rgb(24.499512%, 71.798706%, 75.392151%)" offset="0.25"/><stop stop-opacity="1" stop-color="rgb(24.681091%, 71.798706%, 75.17395%)" offset="0.257813"/><stop stop-opacity="1" stop-color="rgb(24.861145%, 71.798706%, 74.957275%)" offset="0.265625"/><stop stop-opacity="1" stop-color="rgb(25.041199%, 71.798706%, 74.740601%)" offset="0.273438"/><stop stop-opacity="1" stop-color="rgb(25.221252%, 71.798706%, 74.523926%)" offset="0.28125"/><stop stop-opacity="1" stop-color="rgb(25.402832%, 71.798706%, 74.307251%)" offset="0.289063"/><stop stop-opacity="1" stop-color="rgb(25.582886%, 71.798706%, 74.08905%)" offset="0.296875"/><stop stop-opacity="1" stop-color="rgb(25.762939%, 71.798706%, 73.872375%)" offset="0.304688"/><stop stop-opacity="1" stop-color="rgb(25.942993%, 71.798706%, 73.655701%)" offset="0.3125"/><stop stop-opacity="1" stop-color="rgb(26.123047%, 71.798706%, 73.439026%)" offset="0.320313"/><stop stop-opacity="1" stop-color="rgb(26.304626%, 71.798706%, 73.222351%)" offset="0.328125"/><stop stop-opacity="1" stop-color="rgb(26.48468%, 71.798706%, 73.00415%)" offset="0.335938"/><stop stop-opacity="1" stop-color="rgb(26.664734%, 71.798706%, 72.787476%)" offset="0.34375"/><stop stop-opacity="1" stop-color="rgb(26.844788%, 71.798706%, 72.570801%)" offset="0.351563"/><stop stop-opacity="1" stop-color="rgb(27.026367%, 71.798706%, 72.354126%)" offset="0.359375"/><stop stop-opacity="1" stop-color="rgb(27.206421%, 71.798706%, 72.137451%)" offset="0.367188"/><stop stop-opacity="1" stop-color="rgb(27.386475%, 71.798706%, 71.91925%)" offset="0.375"/><stop stop-opacity="1" stop-color="rgb(27.566528%, 71.798706%, 71.702576%)" offset="0.382813"/><stop stop-opacity="1" stop-color="rgb(27.748108%, 71.798706%, 71.485901%)" offset="0.390625"/><stop stop-opacity="1" stop-color="rgb(27.928162%, 71.798706%, 71.269226%)" offset="0.393641"/><stop stop-opacity="1" stop-color="rgb(28.018188%, 71.798706%, 71.160889%)" offset="0.398438"/><stop stop-opacity="1" stop-color="rgb(28.108215%, 71.798706%, 71.052551%)" offset="0.40625"/><stop stop-opacity="1" stop-color="rgb(28.288269%, 71.798706%, 70.834351%)" offset="0.414063"/><stop stop-opacity="1" stop-color="rgb(28.468323%, 71.798706%, 70.617676%)" offset="0.421875"/><stop stop-opacity="1" stop-color="rgb(28.649902%, 71.798706%, 70.401001%)" offset="0.429688"/><stop stop-opacity="1" stop-color="rgb(28.829956%, 71.798706%, 70.184326%)" offset="0.4375"/><stop stop-opacity="1" stop-color="rgb(29.01001%, 71.798706%, 69.967651%)" offset="0.445313"/><stop stop-opacity="1" stop-color="rgb(29.190063%, 71.798706%, 69.750977%)" offset="0.453125"/><stop stop-opacity="1" stop-color="rgb(29.371643%, 71.798706%, 69.532776%)" offset="0.460938"/><stop stop-opacity="1" stop-color="rgb(29.551697%, 71.798706%, 69.316101%)" offset="0.46875"/><stop stop-opacity="1" stop-color="rgb(29.73175%, 71.798706%, 69.099426%)" offset="0.476563"/><stop stop-opacity="1" stop-color="rgb(29.911804%, 71.798706%, 68.882751%)" offset="0.484375"/><stop stop-opacity="1" stop-color="rgb(30.093384%, 71.798706%, 68.666077%)" offset="0.492188"/><stop stop-opacity="1" stop-color="rgb(30.273438%, 71.798706%, 68.447876%)" offset="0.5"/><stop stop-opacity="1" stop-color="rgb(30.453491%, 71.798706%, 68.231201%)" offset="0.507813"/><stop stop-opacity="1" stop-color="rgb(30.633545%, 71.798706%, 68.014526%)" offset="0.515625"/><stop stop-opacity="1" stop-color="rgb(30.815125%, 71.798706%, 67.797852%)" offset="0.523438"/><stop stop-opacity="1" stop-color="rgb(30.995178%, 71.798706%, 67.581177%)" offset="0.53125"/><stop stop-opacity="1" stop-color="rgb(31.175232%, 71.798706%, 67.362976%)" offset="0.539062"/><stop stop-opacity="1" stop-color="rgb(31.355286%, 71.798706%, 67.146301%)" offset="0.546875"/><stop stop-opacity="1" stop-color="rgb(31.535339%, 71.798706%, 66.929626%)" offset="0.554688"/><stop stop-opacity="1" stop-color="rgb(31.716919%, 71.798706%, 66.712952%)" offset="0.5625"/><stop stop-opacity="1" stop-color="rgb(31.896973%, 71.798706%, 66.496277%)" offset="0.570313"/><stop stop-opacity="1" stop-color="rgb(32.077026%, 71.798706%, 66.278076%)" offset="0.578125"/><stop stop-opacity="1" stop-color="rgb(32.25708%, 71.798706%, 66.061401%)" offset="0.585938"/><stop stop-opacity="1" stop-color="rgb(32.43866%, 71.798706%, 65.844727%)" offset="0.59375"/><stop stop-opacity="1" stop-color="rgb(32.618713%, 71.798706%, 65.628052%)" offset="0.601563"/><stop stop-opacity="1" stop-color="rgb(32.798767%, 71.798706%, 65.411377%)" offset="0.606359"/><stop stop-opacity="1" stop-color="rgb(32.888794%, 71.798706%, 65.30304%)" offset="0.609375"/><stop stop-opacity="1" stop-color="rgb(32.978821%, 71.798706%, 65.194702%)" offset="0.617188"/><stop stop-opacity="1" stop-color="rgb(33.1604%, 71.798706%, 64.976501%)" offset="0.625"/><stop stop-opacity="1" stop-color="rgb(33.340454%, 71.798706%, 64.759827%)" offset="0.632812"/><stop stop-opacity="1" stop-color="rgb(33.520508%, 71.798706%, 64.543152%)" offset="0.640625"/><stop stop-opacity="1" stop-color="rgb(33.700562%, 71.798706%, 64.326477%)" offset="0.648438"/><stop stop-opacity="1" stop-color="rgb(33.882141%, 71.798706%, 64.109802%)" offset="0.65625"/><stop stop-opacity="1" stop-color="rgb(34.062195%, 71.798706%, 63.891602%)" offset="0.664063"/><stop stop-opacity="1" stop-color="rgb(34.242249%, 71.798706%, 63.674927%)" offset="0.671875"/><stop stop-opacity="1" stop-color="rgb(34.422302%, 71.798706%, 63.458252%)" offset="0.679688"/><stop stop-opacity="1" stop-color="rgb(34.602356%, 71.798706%, 63.241577%)" offset="0.6875"/><stop stop-opacity="1" stop-color="rgb(34.783936%, 71.798706%, 63.024902%)" offset="0.695313"/><stop stop-opacity="1" stop-color="rgb(34.963989%, 71.798706%, 62.806702%)" offset="0.703125"/><stop stop-opacity="1" stop-color="rgb(35.144043%, 71.798706%, 62.590027%)" offset="0.710938"/><stop stop-opacity="1" stop-color="rgb(35.324097%, 71.798706%, 62.373352%)" offset="0.71875"/><stop stop-opacity="1" stop-color="rgb(35.505676%, 71.798706%, 62.156677%)" offset="0.726562"/><stop stop-opacity="1" stop-color="rgb(35.68573%, 71.798706%, 61.940002%)" offset="0.734375"/><stop stop-opacity="1" stop-color="rgb(35.865784%, 71.798706%, 61.721802%)" offset="0.742188"/><stop stop-opacity="1" stop-color="rgb(36.045837%, 71.798706%, 61.505127%)" offset="0.75"/><stop stop-opacity="1" stop-color="rgb(36.227417%, 71.798706%, 61.288452%)" offset="0.757813"/><stop stop-opacity="1" stop-color="rgb(36.407471%, 71.798706%, 61.071777%)" offset="0.765625"/><stop stop-opacity="1" stop-color="rgb(36.587524%, 71.798706%, 60.855103%)" offset="0.773438"/><stop stop-opacity="1" stop-color="rgb(36.767578%, 71.798706%, 60.638428%)" offset="0.78125"/><stop stop-opacity="1" stop-color="rgb(36.949158%, 71.798706%, 60.420227%)" offset="0.789062"/><stop stop-opacity="1" stop-color="rgb(37.129211%, 71.798706%, 60.203552%)" offset="0.796875"/><stop stop-opacity="1" stop-color="rgb(37.258911%, 71.798706%, 60.046387%)" offset="0.8125"/><stop stop-opacity="1" stop-color="rgb(37.298584%, 71.798706%, 59.999084%)" offset="0.875"/><stop stop-opacity="1" stop-color="rgb(37.298584%, 71.798706%, 59.999084%)" offset="1"/></linearGradient><clipPath id="7d767a8d7d"><path d="M 310 296 L 666.941406 296 L 666.941406 607.945312 L 310 607.945312 Z M 310 296 " clip-rule="nonzero"/></clipPath></defs><g fill="#df7a30" fill-opacity="1"><g transform="translate(685.104591, 602.294772)"><g><path d="M 8.4375 0 L 55.09375 -482.953125 L 218.703125 -482.953125 L 264.8125 0 L 173.15625 0 L 166.421875 -78.140625 L 107.953125 -78.140625 L 102.328125 0 Z M 115.25 -155.171875 L 159.109375 -155.171875 L 137.75 -400.859375 L 133.25 -400.859375 Z M 115.25 -155.171875 "/></g></g></g><g fill="#5fb799" fill-opacity="1"><g transform="translate(957.783026, 602.294772)"><g><path d="M 19.671875 -411.546875 L 118.0625 -411.546875 L 118.0625 -359.25 C 122.1875 -376.125 129.304688 -389.804688 139.421875 -400.296875 C 149.546875 -410.796875 163.039062 -416.046875 179.90625 -416.046875 C 207.644531 -416.046875 228.164062 -407.515625 241.46875 -390.453125 C 254.78125 -373.398438 261.4375 -349.132812 261.4375 -317.65625 L 261.4375 0 L 164.734375 0 L 164.734375 -307.53125 C 164.734375 -316.53125 162.953125 -324.210938 159.390625 -330.578125 C 155.828125 -336.953125 150.296875 -340.140625 142.796875 -340.140625 C 132.679688 -340.140625 126.03125 -335.546875 122.84375 -326.359375 C 119.65625 -317.179688 118.0625 -304.910156 118.0625 -289.546875 L 118.0625 0 L 19.671875 0 Z M 19.671875 -411.546875 "/></g></g></g><g fill="#5fb799" fill-opacity="1"><g transform="translate(1238.328343, 602.294772)"><g><path d="M 130.4375 60.15625 C 101.195312 60.15625 78.238281 57.8125 61.5625 53.125 C 44.882812 48.445312 28.488281 39.546875 12.375 26.421875 L 46.109375 -30.359375 C 70.085938 -16.117188 93.882812 -9 117.5 -9 C 132.863281 -9 144.484375 -13.867188 152.359375 -23.609375 C 160.234375 -33.359375 164.171875 -46.664062 164.171875 -63.53125 L 164.171875 -86.015625 C 156.296875 -57.910156 135.492188 -43.859375 101.765625 -43.859375 C 73.648438 -43.859375 52.9375 -53.414062 39.625 -72.53125 C 26.320312 -91.644531 19.671875 -117.128906 19.671875 -148.984375 L 19.671875 -303.59375 C 19.671875 -339.957031 25.757812 -367.789062 37.9375 -387.09375 C 50.125 -406.394531 71.398438 -416.046875 101.765625 -416.046875 C 119.378906 -416.046875 133.335938 -411.640625 143.640625 -402.828125 C 153.953125 -394.023438 160.796875 -381.5625 164.171875 -365.4375 L 164.171875 -411.546875 L 264.8125 -411.546875 L 264.8125 -69.71875 C 264.8125 -23.613281 254.128906 9.554688 232.765625 29.796875 C 211.398438 50.035156 177.289062 60.15625 130.4375 60.15625 Z M 141.109375 -118.0625 C 156.484375 -118.0625 164.171875 -131.929688 164.171875 -159.671875 L 164.171875 -306.40625 C 164.171875 -314.65625 161.921875 -322.523438 157.421875 -330.015625 C 152.921875 -337.515625 147.296875 -341.265625 140.546875 -341.265625 C 131.929688 -341.265625 126.125 -338.171875 123.125 -331.984375 C 120.125 -325.804688 118.625 -317.28125 118.625 -306.40625 L 118.625 -159.671875 C 118.625 -147.296875 120.125 -137.265625 123.125 -129.578125 C 126.125 -121.898438 132.117188 -118.0625 141.109375 -118.0625 Z M 141.109375 -118.0625 "/></g></g></g><g fill="#5fb799" fill-opacity="1"><g transform="translate(1521.68481, 602.294772)"><g><path d="M 19.671875 0 L 19.671875 -485.75 L 119.75 -485.75 L 119.75 0 Z M 19.671875 0 "/></g></g></g><g fill="#5fb799" fill-opacity="1"><g transform="translate(1661.114213, 602.294772)"><g><path d="M 134.9375 4.5 C 92.582031 4.5 62.21875 -7.117188 43.84375 -30.359375 C 25.476562 -53.597656 16.296875 -88.269531 16.296875 -134.375 L 16.296875 -299.65625 C 16.296875 -337.519531 27.164062 -366.382812 48.90625 -386.25 C 70.644531 -406.113281 101.007812 -416.046875 140 -416.046875 C 219.082031 -416.046875 258.625 -377.25 258.625 -299.65625 L 258.625 -269.859375 C 258.625 -239.878906 258.25 -215.519531 257.5 -196.78125 L 114.6875 -196.78125 L 114.6875 -116.9375 C 114.6875 -102.695312 116.1875 -91.546875 119.1875 -83.484375 C 122.1875 -75.429688 128.5625 -71.40625 138.3125 -71.40625 C 145.800781 -71.40625 151.140625 -73.648438 154.328125 -78.140625 C 157.515625 -82.640625 159.390625 -87.796875 159.953125 -93.609375 C 160.515625 -99.421875 160.796875 -107.945312 160.796875 -119.1875 L 160.796875 -159.109375 L 258.625 -159.109375 L 258.625 -135.5 C 258.625 -87.519531 249.347656 -52.191406 230.796875 -29.515625 C 212.242188 -6.835938 180.289062 4.5 134.9375 4.5 Z M 160.796875 -245.6875 L 160.796875 -298.53125 C 160.796875 -328.144531 153.488281 -342.953125 138.875 -342.953125 C 122.375 -342.953125 114.125 -328.144531 114.125 -298.53125 L 114.125 -245.6875 Z M 160.796875 -245.6875 "/></g></g></g><g fill="#f1ad1e" fill-opacity="1"><g transform="translate(1935.482548, 602.294772)"><g><path d="M 136.625 4.5 C 97.632812 4.5 68.019531 -7.398438 47.78125 -31.203125 C 27.539062 -55.003906 17.421875 -88.457031 17.421875 -131.5625 L 17.421875 -361.5 C 17.421875 -403.101562 27.539062 -434.492188 47.78125 -455.671875 C 68.019531 -476.847656 97.632812 -487.4375 136.625 -487.4375 C 175.601562 -487.4375 205.210938 -476.847656 225.453125 -455.671875 C 245.691406 -434.492188 255.8125 -403.101562 255.8125 -361.5 L 255.8125 -131.5625 C 255.8125 -88.082031 245.691406 -54.535156 225.453125 -30.921875 C 205.210938 -7.304688 175.601562 4.5 136.625 4.5 Z M 136.625 -84.328125 C 145.238281 -84.328125 151.046875 -88.078125 154.046875 -95.578125 C 157.046875 -103.078125 158.546875 -113.570312 158.546875 -127.0625 L 158.546875 -363.1875 C 158.546875 -373.6875 157.140625 -382.210938 154.328125 -388.765625 C 151.515625 -395.328125 145.800781 -398.609375 137.1875 -398.609375 C 121.0625 -398.609375 113 -386.425781 113 -362.0625 L 113 -126.5 C 113 -112.632812 114.6875 -102.140625 118.0625 -95.015625 C 121.4375 -87.890625 127.625 -84.328125 136.625 -84.328125 Z M 136.625 -84.328125 "/></g></g></g><g fill="#5fb799" fill-opacity="1"><g transform="translate(2208.720161, 602.294772)"><g><path d="M 19.671875 -411.546875 L 118.0625 -411.546875 L 118.0625 -359.25 C 122.1875 -376.125 129.304688 -389.804688 139.421875 -400.296875 C 149.546875 -410.796875 163.039062 -416.046875 179.90625 -416.046875 C 207.644531 -416.046875 228.164062 -407.515625 241.46875 -390.453125 C 254.78125 -373.398438 261.4375 -349.132812 261.4375 -317.65625 L 261.4375 0 L 164.734375 0 L 164.734375 -307.53125 C 164.734375 -316.53125 162.953125 -324.210938 159.390625 -330.578125 C 155.828125 -336.953125 150.296875 -340.140625 142.796875 -340.140625 C 132.679688 -340.140625 126.03125 -335.546875 122.84375 -326.359375 C 119.65625 -317.179688 118.0625 -304.910156 118.0625 -289.546875 L 118.0625 0 L 19.671875 0 Z M 19.671875 -411.546875 "/></g></g></g><g fill="#5fb799" fill-opacity="1"><g transform="translate(2489.265478, 602.294772)"><g><path d="M 134.9375 4.5 C 92.582031 4.5 62.21875 -7.117188 43.84375 -30.359375 C 25.476562 -53.597656 16.296875 -88.269531 16.296875 -134.375 L 16.296875 -299.65625 C 16.296875 -337.519531 27.164062 -366.382812 48.90625 -386.25 C 70.644531 -406.113281 101.007812 -416.046875 140 -416.046875 C 219.082031 -416.046875 258.625 -377.25 258.625 -299.65625 L 258.625 -269.859375 C 258.625 -239.878906 258.25 -215.519531 257.5 -196.78125 L 114.6875 -196.78125 L 114.6875 -116.9375 C 114.6875 -102.695312 116.1875 -91.546875 119.1875 -83.484375 C 122.1875 -75.429688 128.5625 -71.40625 138.3125 -71.40625 C 145.800781 -71.40625 151.140625 -73.648438 154.328125 -78.140625 C 157.515625 -82.640625 159.390625 -87.796875 159.953125 -93.609375 C 160.515625 -99.421875 160.796875 -107.945312 160.796875 -119.1875 L 160.796875 -159.109375 L 258.625 -159.109375 L 258.625 -135.5 C 258.625 -87.519531 249.347656 -52.191406 230.796875 -29.515625 C 212.242188 -6.835938 180.289062 4.5 134.9375 4.5 Z M 160.796875 -245.6875 L 160.796875 -298.53125 C 160.796875 -328.144531 153.488281 -342.953125 138.875 -342.953125 C 122.375 -342.953125 114.125 -328.144531 114.125 -298.53125 L 114.125 -245.6875 Z M 160.796875 -245.6875 "/></g></g></g><g fill="#38b7c8" fill-opacity="1"><g transform="translate(2763.630683, 602.294772)"><g><path d="M 8.4375 0 L 55.09375 -482.953125 L 218.703125 -482.953125 L 264.8125 0 L 173.15625 0 L 166.421875 -78.140625 L 107.953125 -78.140625 L 102.328125 0 Z M 115.25 -155.171875 L 159.109375 -155.171875 L 137.75 -400.859375 L 133.25 -400.859375 Z M 115.25 -155.171875 "/></g></g></g><g fill="#5fb799" fill-opacity="1"><g transform="translate(3036.309133, 602.294772)"><g><path d="M 130.4375 60.15625 C 101.195312 60.15625 78.238281 57.8125 61.5625 53.125 C 44.882812 48.445312 28.488281 39.546875 12.375 26.421875 L 46.109375 -30.359375 C 70.085938 -16.117188 93.882812 -9 117.5 -9 C 132.863281 -9 144.484375 -13.867188 152.359375 -23.609375 C 160.234375 -33.359375 164.171875 -46.664062 164.171875 -63.53125 L 164.171875 -86.015625 C 156.296875 -57.910156 135.492188 -43.859375 101.765625 -43.859375 C 73.648438 -43.859375 52.9375 -53.414062 39.625 -72.53125 C 26.320312 -91.644531 19.671875 -117.128906 19.671875 -148.984375 L 19.671875 -303.59375 C 19.671875 -339.957031 25.757812 -367.789062 37.9375 -387.09375 C 50.125 -406.394531 71.398438 -416.046875 101.765625 -416.046875 C 119.378906 -416.046875 133.335938 -411.640625 143.640625 -402.828125 C 153.953125 -394.023438 160.796875 -381.5625 164.171875 -365.4375 L 164.171875 -411.546875 L 264.8125 -411.546875 L 264.8125 -69.71875 C 264.8125 -23.613281 254.128906 9.554688 232.765625 29.796875 C 211.398438 50.035156 177.289062 60.15625 130.4375 60.15625 Z M 141.109375 -118.0625 C 156.484375 -118.0625 164.171875 -131.929688 164.171875 -159.671875 L 164.171875 -306.40625 C 164.171875 -314.65625 161.921875 -322.523438 157.421875 -330.015625 C 152.921875 -337.515625 147.296875 -341.265625 140.546875 -341.265625 C 131.929688 -341.265625 126.125 -338.171875 123.125 -331.984375 C 120.125 -325.804688 118.625 -317.28125 118.625 -306.40625 L 118.625 -159.671875 C 118.625 -147.296875 120.125 -137.265625 123.125 -129.578125 C 126.125 -121.898438 132.117188 -118.0625 141.109375 -118.0625 Z M 141.109375 -118.0625 "/></g></g></g><g fill="#5fb799" fill-opacity="1"><g transform="translate(3319.6656, 602.294772)"><g><path d="M 19.671875 0 L 19.671875 -485.75 L 119.75 -485.75 L 119.75 0 Z M 19.671875 0 "/></g></g></g><g fill="#5fb799" fill-opacity="1"><g transform="translate(3459.095003, 602.294772)"><g><path d="M 139.4375 4.5 C 57.34375 4.5 16.296875 -38.039062 16.296875 -123.125 L 16.296875 -288.421875 C 16.296875 -327.398438 27.257812 -358.414062 49.1875 -381.46875 C 71.113281 -404.519531 101.195312 -416.046875 139.4375 -416.046875 C 177.664062 -416.046875 207.742188 -404.519531 229.671875 -381.46875 C 251.597656 -358.414062 262.5625 -327.398438 262.5625 -288.421875 L 262.5625 -123.125 C 262.5625 -38.039062 221.519531 4.5 139.4375 4.5 Z M 139.4375 -71.40625 C 147.300781 -71.40625 153.109375 -74.210938 156.859375 -79.828125 C 160.609375 -85.453125 162.484375 -93.140625 162.484375 -102.890625 L 162.484375 -304.15625 C 162.484375 -328.144531 154.800781 -340.140625 139.4375 -340.140625 C 124.0625 -340.140625 116.375 -328.144531 116.375 -304.15625 L 116.375 -102.890625 C 116.375 -93.140625 118.25 -85.453125 122 -79.828125 C 125.75 -74.210938 131.5625 -71.40625 139.4375 -71.40625 Z M 139.4375 -71.40625 "/></g></g></g><g clip-path="url(#98987f1d21)"><g clip-path="url(#b242509286)"><path fill="url(#85002bd285)" d="M 11.441406 37.945312 L 11.441406 607.847656 L 446.992188 607.847656 L 446.992188 37.945312 Z M 11.441406 37.945312 " fill-rule="nonzero"/></g></g><g clip-path="url(#84ba14aed0)"><path stroke-linecap="butt" transform="matrix(0.106976, 0, 0, 0.106974, 11.442716, 37.987679)" fill="none" stroke-linejoin="miter" d="M 3346.890911 541.425087 L 1101.941144 4444.341124 C 1050.345275 4533.987362 1111.471591 4646.528994 1214.736359 4652.079393 L 1539.027167 4669.497419 C 1591.024703 4672.272619 1640.174058 4645.725647 1666.355402 4600.701691 L 3595.887535 1283.09708 C 3649.30916 1191.259896 3781.822542 1191.077317 3835.499773 1282.768438 L 4046.119003 1642.667959 C 4071.204892 1685.610515 4071.460498 1738.667943 4046.703245 1781.793078 L 2053.561767 5257.36495 C 2028.841028 5300.490085 1982.941519 5327.073573 1933.244436 5327.073573 L 139.4025 5327.073573 C 32.887886 5327.073573 -33.898274 5211.939321 19.012139 5119.444852 L 2907.54095 70.335019 C 2960.232273 -21.794292 3092.636109 -23.035829 3147.043642 68.107556 L 3345.758942 401.094948 C 3371.465589 444.220083 3371.90377 497.898279 3346.890911 541.425087 Z M 3346.890911 541.425087 " stroke="#231f20" stroke-width="1" stroke-opacity="1" stroke-miterlimit="10"/></g><g clip-path="url(#4b5ff0d142)"><g clip-path="url(#c91bf52cbe)"><path fill="url(#2f6847fb30)" d="M 309.265625 296.421875 L 309.265625 607.84375 L 666.941406 607.84375 L 666.941406 296.421875 Z M 309.265625 296.421875 " fill-rule="nonzero"/></g></g><g clip-path="url(#7d767a8d7d)"><path stroke-linecap="butt" transform="matrix(0.106976, 0, 0, 0.106974, 11.442716, 37.987679)" fill="none" stroke-linejoin="miter" d="M 5233.225654 4123.111814 L 4883.775926 4123.111814 C 4845.946259 4123.111814 4810.636135 4104.014061 4789.895545 4072.391397 L 4546.59528 3701.354563 C 4500.878346 3631.645941 4397.796153 3634.311593 4355.767247 3706.320709 L 3898.780481 4488.999922 C 3855.473545 4563.126954 3907.982292 4656.461286 3993.829347 4657.921917 L 5784.384922 4688.376077 C 5824.332467 4689.069877 5860.884105 4710.906313 5880.419696 4745.742366 L 6112.546333 5159.831303 C 6154.502209 5234.688651 6100.386797 5327.037057 6014.576258 5327.037057 L 2923.899725 5327.037057 C 2838.089186 5327.037057 2784.010289 5234.688651 2825.966165 5159.831303 L 4321.041365 2492.49969 C 4364.019664 2415.853069 4474.368366 2415.999133 4517.09106 2492.791816 L 5331.305275 3956.161671 C 5372.96903 4031.019019 5318.853618 4123.075298 5233.225654 4123.075298 Z M 5233.225654 4123.111814 " stroke="#231f20" stroke-width="1" stroke-opacity="1" stroke-miterlimit="10"/></g></svg>